<?xml version="1.0" encoding="UTF-8"?>
<svg width="31px" height="64px" viewBox="0 0 31 64" version="1.1" xmlns="http://www.w3.org/2000/svg" xmlns:xlink="http://www.w3.org/1999/xlink">
    <title>Shape</title>
    <g id="Styleguide" stroke="none" stroke-width="1" fill="none" fill-rule="evenodd">
        <g id="Icons" transform="translate(-69.000000, -222.000000)" fill="#082551" fill-rule="nonzero">
            <path d="M84.6146456,285.13233 C90.1052829,285.13233 99.3991846,284.02988 99.3991846,279.896643 L99.3991846,245.120488 C99.3991846,241.620493 92.7379087,240.297981 87.3614742,239.97389 C88.9585656,239.197437 90.1107665,237.756431 90.4536929,235.899066 C91.1797592,231.968008 87.2480661,224.160571 85.6738631,222.974197 C85.1792226,222.602263 84.584128,222.528512 84.0856727,222.779011 C83.8415314,222.900446 83.2769544,223.282553 83.2769544,224.21207 C83.2769544,226.858842 81.9062024,228.989357 80.6969399,230.868737 C79.6606108,232.479815 78.6815021,234.001884 78.6815021,235.662554 C78.6815021,237.529297 79.9354286,239.138468 81.7602103,239.980565 C76.4029289,240.315862 69.8301066,241.643778 69.8301066,245.120488 L69.8301066,279.896643 C69.8301066,284.02988 79.1240084,285.13233 84.6146456,285.13233 Z M84.6146456,282.528156 C77.2548011,282.528156 72.7051254,280.772119 72.4342811,279.896643 L72.4342811,248.298538 C75.5919857,249.858038 80.9461676,250.356175 84.6146456,250.356175 C88.2832032,250.356175 93.6374646,249.858038 96.7952486,248.298538 L96.7975533,279.86994 C96.5241659,280.772119 91.9744902,282.528156 84.6146456,282.528156 Z M82.8878542,232.277636 C83.8059274,230.849027 84.8804036,229.180092 85.4589678,227.164019 C86.7419815,229.609883 88.2551492,233.461467 87.8927519,235.426042 C87.679446,236.58007 86.7239411,237.910053 84.7573793,237.9904 C84.7082649,237.984757 84.66527,237.961551 84.6146456,237.961551 C84.5548819,237.961551 84.5037807,237.987777 84.4461627,237.995566 C82.7206429,237.943034 81.2856766,236.89995 81.2856766,235.662554 C81.2856766,234.766733 82.0282733,233.613419 82.8878542,232.277636 Z M83.3125584,242.508922 L83.3125584,245.120488 C83.3125584,245.83956 83.8949373,246.422575 84.6146456,246.422575 C85.334354,246.422575 85.9167328,245.83956 85.9167328,245.120488 L85.9167328,242.508684 C92.4386924,242.697115 96.4555011,244.266788 96.7886524,245.120488 C96.435156,246.030296 91.9032823,247.752001 84.6146456,247.752001 C77.2664043,247.752001 72.7206227,246.001765 72.4342811,245.151482 L72.4342811,245.14274 C72.7044896,244.293968 76.7327424,242.699022 83.3125584,242.508922 Z" id="Shape"></path>
        </g>
    </g>
</svg>