<?xml version="1.0" encoding="UTF-8"?>
<svg width="43px" height="60px" viewBox="0 0 43 60" version="1.1" xmlns="http://www.w3.org/2000/svg" xmlns:xlink="http://www.w3.org/1999/xlink">
    <title>Group 13</title>
    <g id="Styleguide" stroke="none" stroke-width="1" fill="none" fill-rule="evenodd">
        <g id="Icons" transform="translate(-241.000000, -228.000000)">
            <g id="Group-13" transform="translate(241.968001, 228.632195)">
                <path d="M20.7840909,0 C13.0208407,0 6.70454545,6.1873367 6.70454545,13.8490767 L6.70454545,22.7954545 L5.36363636,22.7954545 C2.41537686,22.7954545 8.17124146e-14,25.2108207 8.17124146e-14,28.1590909 L8.17124146e-14,53.6363636 C8.17124146e-14,56.5846205 2.41537686,59 5.36363636,59 L36.2045455,59 C39.1528056,59 41.5681818,56.5846205 41.5681818,53.6363636 L41.5681818,28.1590909 C41.5681818,25.2108207 39.1528056,22.7954545 36.2045455,22.7954545 L9.38636364,22.7954545 L9.38636364,13.8490767 C9.38636364,7.65356716 14.4344405,2.68181818 20.7840909,2.68181818 C27.1338084,2.68181818 32.1818182,7.65356716 32.1818182,13.8490767 L32.1818182,15.7727273 C32.1749861,16.2563027 32.4290571,16.7060974 32.8467442,16.9498789 C33.2644313,17.1936604 33.7810233,17.1936604 34.1987104,16.9498789 C34.6163974,16.7060974 34.8704685,16.2563027 34.8636364,15.7727273 L34.8636364,13.8490767 C34.8636364,6.1873367 28.5473961,0 20.7840909,0 Z M5.36363636,25.4772727 L36.2045455,25.4772727 C37.7134658,25.4772727 38.8863636,26.6501525 38.8863636,28.1590909 L38.8863636,53.6363636 C38.8863636,55.1452886 37.7134658,56.3181818 36.2045455,56.3181818 L5.36363636,56.3181818 C3.85471673,56.3181818 2.68181818,55.1452886 2.68181818,53.6363636 L2.68181818,28.1590909 C2.68181818,26.6501525 3.85471673,25.4772727 5.36363636,25.4772727 Z" id="Shape" fill="#082551" fill-rule="nonzero"></path>
                <g id="Group-2" transform="translate(15.284091, 32.181818)">
                    <path d="M5.36363636,4.61852778e-14 C2.41726553,4.61852778e-14 -1.04805054e-13,2.41725682 -1.04805054e-13,5.36363636 C-1.04805054e-13,7.84610494 1.71999817,9.9577907 4.02272727,10.5596591 L4.02272727,16.0909091 C4.01588997,16.5744879 4.26995989,17.024288 4.68764908,17.2680727 C5.10533827,17.5118574 5.62193445,17.5118574 6.03962364,17.2680727 C6.45731283,17.024288 6.71138275,16.5744879 6.70454545,16.0909091 L6.70454545,10.5596591 C9.00727456,9.9577907 10.7272727,7.84610494 10.7272727,5.36363636 C10.7272727,2.41725682 8.31000652,4.61852778e-14 5.36363636,4.61852778e-14 Z" id="Path" fill="#16B3AB"></path>
                    <path d="M5.36363636,2.68181818 C6.86063666,2.68181818 8.04545455,3.86664545 8.04545455,5.36363636 C8.04545455,6.86056023 6.86060917,8.04545455 5.36363636,8.04545455 C3.86666222,8.04545455 2.68181818,6.86056023 2.68181818,5.36363636 C2.68181818,3.86664545 3.8666354,2.68181818 5.36363636,2.68181818 Z" id="Path" fill="#FFFFFF"></path>
                </g>
            </g>
        </g>
    </g>
</svg>