<?xml version="1.0" encoding="UTF-8"?>
<svg width="40px" height="61px" viewBox="0 0 40 61" version="1.1" xmlns="http://www.w3.org/2000/svg" xmlns:xlink="http://www.w3.org/1999/xlink">
    <title>Group 17</title>
    <g id="Styleguide" stroke="none" stroke-width="1" fill="none" fill-rule="evenodd">
        <g id="Icons" transform="translate(-69.000000, -318.000000)">
            <g id="Group-17" transform="translate(69.830107, 318.560453)">
                <path d="M27.365439,0.000751365882 L27.3850901,0.00184951602 L27.4230052,0.00358343728 C27.4727109,0.00728246932 27.5218387,0.0125998279 27.5710821,0.0220785975 C27.6203254,0.0320197461 27.6677193,0.0460067109 27.7146507,0.0618431918 C27.7273662,0.0658890081 27.7390412,0.0700504192 27.7512943,0.0745586145 C27.7951047,0.0912042586 27.8384527,0.109699419 27.8799512,0.131431232 C27.8827255,0.133165153 27.8858466,0.134089911 27.8889676,0.135939427 C27.932778,0.158942783 27.9743921,0.185991955 28.0154283,0.215353021 L28.0310336,0.226739104 L28.0310336,0.226739104 L28.106358,0.286501591 L28.1630428,0.338692621 L38.6235586,10.7990928 L38.6756629,10.8557921 L38.6756629,10.8557921 L38.7352231,10.930972 L38.7463202,10.946245 C38.7756813,10.9873967 38.8027305,11.0293576 38.8261962,11.0736304 C38.8275833,11.0758267 38.8285081,11.0781386 38.8298952,11.0804505 C38.8515114,11.1228737 38.870469,11.1666841 38.8872302,11.2113037 C38.8917384,11.2230944 38.8957842,11.2347695 38.89983,11.2465601 C38.9156665,11.2934916 38.9296535,11.3418102 38.9395946,11.3910536 C38.9495358,11.4398345 38.9545064,11.4890779 38.9580898,11.5391304 C38.9590146,11.5518459 38.9594769,11.5644457 38.9599393,11.5770455 L38.9609797,11.59674 L38.9609797,11.59674 L38.9616732,11.6163477 L38.9616732,50.6331597 C38.9616732,51.2290275 38.5109585,51.7195674 37.9317022,51.7823244 L37.8057257,51.7891072 L35.015,51.789 L35.0152684,51.7884674 L28.591,51.788 L28.592,49.477 L36.6497782,49.4772121 L36.6497782,12.7722952 L27.3457879,12.7722952 C26.7499201,12.7722952 26.2593801,12.3215805 26.1966231,11.7423242 L26.1898404,11.6163477 L26.1898404,2.31189502 L2.31189502,2.31189502 L2.31189502,49.4772121 L20.871,49.477 L20.87,51.788 L14.9773158,51.7884674 L14.977,51.789 L1.15594751,51.7891072 C0.560079688,51.7891072 0.0695397472,51.3382917 0.00678272324,50.7591159 L-1.03028697e-12,50.6331597 L-1.03028697e-12,1.15594751 C-1.03028697e-12,0.560079688 0.450815419,0.0695397472 1.02999122,0.00678272324 L1.15594751,-3.90798505e-13 L27.365439,0.000751365882 Z M28.5017354,3.94698278 L28.5017354,10.4604002 L35.0152684,10.4604002 L28.5017354,3.94698278 Z" id="Combined-Shape" fill="#082551"></path>
                <path d="M30.8032505,49.6690927 L30.8032505,44.84907 C31.1418602,44.3872159 31.2833176,43.8404009 31.4030212,43.3759168 C31.4656634,43.1320112 31.5515402,42.7983419 31.6298999,42.6915403 C31.7076901,42.5843957 31.9973249,42.4007518 32.2087139,42.2668496 C32.7693047,41.9112254 33.4669111,41.4685819 33.7440175,40.6315501 C34.0181626,39.80561 33.7329697,39.0252951 33.5038131,38.3982073 C33.3997131,38.1135936 33.2818319,37.7906731 33.2818319,37.6146906 C33.2818319,37.4387081 33.3997131,37.116245 33.5038131,36.8316313 C33.7329697,36.2045435 34.0181626,35.4237711 33.7440175,34.5978311 C33.4669111,33.7612566 32.7693047,33.3186132 32.2087139,32.962989 C31.9973249,32.8289724 31.7076901,32.6449855 31.6298999,32.5386413 C31.5515402,32.4314966 31.4656634,32.0978274 31.4030212,31.8539218 C31.2392403,31.2174574 31.0354823,30.4250215 30.3378759,29.9113675 C29.7826381,29.503143 29.1398152,29.4558026 28.7041671,29.4558026 C28.519999,29.4558026 28.3420951,29.4647218 28.1703416,29.473641 C28.0195447,29.4813024 27.877176,29.488392 27.7490442,29.488392 C27.5465391,29.488392 27.4602067,29.4696388 27.4268355,29.4584327 C27.2916422,29.4133793 27.0309368,29.2025205 26.8213701,29.0328271 C26.289253,28.6035624 25.6277513,28.0688683 24.7210338,28.0688683 C23.8147719,28.0688683 23.1527007,28.6035624 22.6210392,29.0328271 C22.4114725,29.2020631 22.150767,29.4133793 22.0155738,29.4584327 C21.9822025,29.4696388 21.8954146,29.488392 21.6934789,29.488392 C21.5653471,29.488392 21.4225229,29.4813024 21.2716121,29.4731836 C21.0999725,29.4647218 20.9224103,29.4558026 20.7377866,29.4558026 C20.302708,29.4558026 19.6597711,29.503143 19.1051029,29.9113675 C18.4070409,30.4250215 18.2028273,31.2174574 18.0390464,31.8539218 C17.9762903,32.0978274 17.8904135,32.4314966 17.8126233,32.5382982 C17.7342635,32.6449855 17.4446288,32.8289724 17.2333537,32.962989 C16.6727629,33.3186132 15.975612,33.7612566 15.6979362,34.5978311 C15.423905,35.4242285 15.7090979,36.2045435 15.9382545,36.8316313 C16.0423544,37.116245 16.1602357,37.4387081 16.1602357,37.6146906 C16.1602357,37.7906731 16.0423544,38.1135936 15.9382545,38.3982073 C15.7090979,39.0252951 15.423905,39.80561 15.6979362,40.6320074 C15.975612,41.4685819 16.6732184,41.9112254 17.2333537,42.2668496 C17.4450843,42.4007518 17.7342635,42.5848531 17.8126233,42.6915403 C17.8904135,42.7983419 17.9762903,43.1320112 18.0390464,43.3759168 C18.1587499,43.8404009 18.300663,44.387559 18.6392726,44.84907 L18.6392726,49.6690927 L30.8032505,49.6690927 Z M25.3264992,54.0460146 C24.9563407,53.8133152 24.485613,53.8133152 24.1154545,54.0460146 L20.9166016,56.0609516 L20.9166016,45.7704911 C21.0376719,45.7669463 21.1564643,45.7624867 21.2716121,45.7566549 C21.4225229,45.7486505 21.5648915,45.7414466 21.6934789,45.7414466 C21.8954146,45.7414466 21.981747,45.7601997 22.0151182,45.7714059 C22.150767,45.8169166 22.4114725,46.0277755 22.6210392,46.1971258 C23.1527007,46.6268479 23.8143163,47.1614276 24.7210338,47.1614276 C25.6277513,47.1614276 26.289253,46.6268479 26.8209145,46.1971258 C27.0304812,46.0277755 27.2911867,45.8169166 27.4264938,45.7718633 C27.4602067,45.7606571 27.5465391,45.741904 27.7485887,45.741904 C27.877176,45.741904 28.0195447,45.7491079 28.1703416,45.7566549 C28.2856032,45.7624867 28.4042817,45.7674037 28.5248965,45.7704911 L28.5248965,56.0609516 L25.3264992,54.0460146 Z M17.8633065,35.3228013 C17.9522584,35.2119975 18.2610276,35.0158896 18.450207,34.896281 C18.8559008,34.6389966 19.3159224,34.3468359 19.6495206,33.8903562 C19.9863079,33.4289596 20.1233235,32.8959807 20.2443938,32.4261222 C20.2973549,32.2206378 20.3827761,31.8887981 20.4556689,31.7632433 C20.4957599,31.7547815 20.5798143,31.7426606 20.7377866,31.7426606 C20.8645517,31.7426606 21.0064647,31.7498645 21.1569199,31.7574115 C21.3294707,31.7659877 21.5074885,31.7749069 21.6934789,31.7749069 C22.1036145,31.7749069 22.4345932,31.728367 22.7349341,31.6279689 C23.2595341,31.4527868 23.6790091,31.1137432 24.0491676,30.8144929 C24.2538368,30.6492591 24.5964327,30.3723068 24.7156807,30.3553832 C24.8459765,30.3723068 25.1881169,30.6492591 25.3927861,30.8144929 C25.7629446,31.1137432 26.182989,31.4527868 26.7074752,31.6279689 C27.0078161,31.728367 27.3383392,31.7749069 27.7490442,31.7749069 C27.9344652,31.7749069 28.1129385,31.7659877 28.2851477,31.7574115 C28.435489,31.7498645 28.577402,31.7426606 28.7046227,31.7426606 C28.8625949,31.7426606 28.9461938,31.7543241 28.9867404,31.7632433 C29.0596331,31.8887981 29.1450543,32.2206378 29.1975599,32.4261222 C29.3186302,32.8959807 29.4561014,33.4289596 29.7928887,33.8903562 C30.1261452,34.3468359 30.5861668,34.6385392 30.9923161,34.896281 C31.1809261,35.016347 31.4896952,35.2119975 31.5787611,35.3228013 C31.575572,35.4688245 31.4452762,35.8257065 31.3655498,36.0442267 C31.1960741,36.5073386 31.004389,37.0326561 31.004389,37.6146906 C31.004389,38.196725 31.1960741,38.7220426 31.3652081,39.1856118 C31.4452762,39.4040177 31.575572,39.7610141 31.5787611,39.9070372 C31.4896952,40.017841 31.1809261,40.2134915 30.9923161,40.3335576 C30.5861668,40.5908419 30.1261452,40.8830027 29.7928887,41.3394823 C29.4561014,41.800879 29.3186302,42.3338579 29.1975599,42.8037163 C29.1450543,43.0087434 29.0591776,43.3410405 28.9867404,43.4665952 C28.9461938,43.475057 28.8625949,43.4870636 28.7046227,43.4870636 C28.577402,43.4870636 28.435489,43.479974 28.2851477,43.472427 C28.1129385,43.4638509 27.9344652,43.4549317 27.7490442,43.4549317 C27.3383392,43.4549317 27.0078161,43.5013572 26.7074752,43.6018696 C26.182989,43.7770517 25.7629446,44.1164384 25.3927861,44.4153457 C25.1913059,44.5787499 24.8548603,44.8498704 24.7210338,44.873998 C24.5870934,44.8498704 24.2512172,44.5787499 24.0496232,44.4153457 C23.6790091,44.1164384 23.2595341,43.7770517 22.7349341,43.6018696 C22.4345932,43.5013572 22.1036145,43.4549317 21.6934789,43.4549317 C21.5079441,43.4549317 21.3294707,43.4638509 21.1569199,43.472427 C21.0069203,43.479974 20.8650072,43.4870636 20.7377866,43.4870636 C20.5798143,43.4870636 20.4962155,43.475057 20.4556689,43.4665952 C20.3827761,43.3410405 20.2973549,43.0092008 20.2443938,42.8037163 C20.1237791,42.3338579 19.9863079,41.800879 19.6495206,41.3394823 C19.3163779,40.8830027 18.8563563,40.5908419 18.450207,40.3335576 C18.2614832,40.2138346 17.952714,40.017841 17.8637621,39.9070372 C17.8668372,39.7613571 17.9972469,39.4040177 18.0768595,39.1856118 C18.2463351,38.7224999 18.4381342,38.1971824 18.4381342,37.615148 C18.4381342,37.0326561 18.2459934,36.5073386 18.0768595,36.0442267 C17.9967913,35.8257065 17.8664956,35.4688245 17.8633065,35.3228013 Z M18.638817,49.6690927 L18.638817,58.0410269 C18.638817,58.4567984 18.8638734,58.840095 19.2265148,59.0415772 C19.589498,59.2429451 20.0322075,59.2309385 20.3832317,59.0097883 L24.7210338,56.2775425 L29.0588359,59.0097883 C29.2434596,59.1259665 29.4538235,59.1845526 29.6643013,59.1845526 C29.8538225,59.1845526 30.0437992,59.1371727 30.2155527,59.0419203 C30.5780803,58.8405524 30.8032505,58.4572558 30.8032505,58.0410269 L30.8032505,49.6690927 L18.638817,49.6690927 Z" id="Fill-1-Copy" fill="#16B3AB"></path>
                <path d="M27.6627718,22.1300834 C28.3012016,22.1300834 28.8187193,22.6479478 28.8187193,23.2860309 C28.8187193,23.9244607 28.3012016,24.4419784 27.6627718,24.4419784 L27.6627718,24.4419784 L6.80427695,24.4419784 C6.16584714,24.4419784 5.64832944,23.9244607 5.64832944,23.2860309 C5.64832944,22.6479478 6.16584714,22.1300834 6.80427695,22.1300834 L6.80427695,22.1300834 Z M32.2865619,22.1300834 C32.9237201,22.1300834 33.4425094,22.649335 33.4425094,23.2860309 C33.4425094,23.9227268 32.9237201,24.4419784 32.2865619,24.4419784 C31.649866,24.4419784 31.1306143,23.9227268 31.1306143,23.2860309 C31.1306143,22.649335 31.649866,22.1300834 32.2865619,22.1300834 Z M32.2865619,16.2952533 C32.9249917,16.2952533 33.4425094,16.812771 33.4425094,17.4512009 C33.4425094,18.0896307 32.9249917,18.6071484 32.2865619,18.6071484 L32.2865619,18.6071484 L6.80427695,18.6071484 C6.16584714,18.6071484 5.64832944,18.0896307 5.64832944,17.4512009 C5.64832944,16.812771 6.16584714,16.2952533 6.80427695,16.2952533 L6.80427695,16.2952533 Z M21.6969383,10.4604349 C22.3350213,10.4604349 22.8528858,10.9779526 22.8528858,11.6163824 C22.8528858,12.2548122 22.3350213,12.7723299 21.6969383,12.7723299 L21.6969383,12.7723299 L6.80428851,12.7723299 C6.16620549,12.7723299 5.648341,12.2548122 5.648341,11.6163824 C5.648341,10.9779526 6.1658587,10.4604349 6.80428851,10.4604349 L6.80428851,10.4604349 Z" id="Combined-Shape" fill="#082551"></path>
            </g>
        </g>
    </g>
</svg>