<?xml version="1.0" encoding="UTF-8"?>
<svg width="67px" height="60px" viewBox="0 0 67 60" version="1.1" xmlns="http://www.w3.org/2000/svg" xmlns:xlink="http://www.w3.org/1999/xlink">
    <title>Group 21</title>
    <g id="Styleguide" stroke="none" stroke-width="1" fill="none" fill-rule="evenodd">
        <g id="Icons" transform="translate(-411.000000, -311.000000)" fill-rule="nonzero">
            <g id="Group-21" transform="translate(411.251041, 311.182511)">
                <path d="M60.7215672,0.35 L60.9370599,0.354601105 C63.580868,0.467709356 65.6947761,2.65191471 65.6947761,5.32320896 L65.6947761,5.32320896 L65.6947761,25.3039552 L65.6898127,25.5270513 C65.5776996,28.042313 63.5796522,30.0961478 61.0548905,30.2647329 L61.0548905,30.2647329 L60.728209,30.2865463 L60.728209,37.2536567 L60.7213665,37.3816694 C60.6760615,37.8036285 60.4089017,38.1732822 60.0132955,38.3463599 C59.8597294,38.4111673 59.6989372,38.4447015 59.5371642,38.4447015 C59.2386111,38.4447015 58.9482389,38.331779 58.7288901,38.1257241 L58.7288901,38.1257241 L50.2608931,30.2727612 L43.133,30.272 L43.133,27.89 L50.726791,27.8906716 L50.8549309,27.8976158 C51.1090614,27.9252492 51.3482332,28.0344944 51.5353221,28.2098903 L51.5353221,28.2098903 L58.3461194,34.5242249 L58.3461194,29.0817164 L58.3522831,28.9601564 C58.4134166,28.3605071 58.9217175,27.8906716 59.5371642,27.8906716 L59.5371642,27.8906716 L60.7215672,27.8906716 L60.8852965,27.8855754 C62.2389354,27.8010616 63.3126866,26.6759966 63.3126866,25.3039552 L63.3126866,25.3039552 L63.3126866,5.32320896 L63.3075867,5.15939553 C63.2230118,3.80511187 62.0970849,2.73208955 60.7215672,2.73208955 L60.7215672,2.73208955 L29.6805224,2.73208955 L29.5171137,2.73719275 C28.1661002,2.82182266 27.093806,3.94844916 27.093806,5.32320896 L27.093806,5.32320896 L27.093806,20.4949776 L36.3620522,20.4949776 L36.5774192,20.4995807 C39.2197484,20.6127362 41.3348209,22.7978169 41.3348209,25.467306 L41.3348209,25.467306 L41.3348209,45.446291 L41.3302171,45.6616511 C41.2170442,48.3038993 39.0316316,50.4190597 36.3620522,50.4190597 L36.3620522,50.4190597 L15.7834537,50.4190597 L7.31666374,58.2700345 L7.21779134,58.3523789 C7.01237785,58.5054209 6.76298919,58.5879179 6.50629104,58.5879179 C6.34369743,58.5879179 6.18185021,58.5544263 6.02981552,58.4883536 C5.59608971,58.2990229 5.31568657,57.8706506 5.31568657,57.3968731 L5.31568657,57.3968731 L5.31568657,50.4296622 L4.98889819,50.4079422 L4.76756316,50.3882795 C2.27537844,50.1107832 0.35,47.9890667 0.35,45.446291 L0.35,45.446291 L0.35,25.467306 L0.354603898,25.251975 C0.467780007,22.6100777 2.65325129,20.4949776 5.32276866,20.4949776 L5.32276866,20.4949776 L24.7117164,20.4949776 L24.7117164,5.32320896 L24.7163162,5.10776388 C24.8293901,2.46451214 27.0128953,0.35 29.6805224,0.35 L29.6805224,0.35 L60.7215672,0.35 Z M36.3620522,22.8770672 L5.32276866,22.8770672 L5.15913835,22.882171 C3.80627527,22.9668104 2.73208955,24.0935418 2.73208955,25.467306 L2.73208955,25.467306 L2.73208955,45.446291 L2.737195,45.6099147 C2.8218614,46.9627266 3.94894435,48.0369701 5.32276866,48.0369701 L5.32276866,48.0369701 L6.50673134,48.0369701 L6.628509,48.0431194 C7.22910163,48.1041126 7.69777612,48.6113299 7.69777612,49.2280149 L7.69777612,49.2280149 L7.69777612,54.6679588 L14.5062873,48.3548574 L14.6048301,48.2728344 C14.8096101,48.1202204 15.0585825,48.0369701 15.3162239,48.0369701 L15.3162239,48.0369701 L36.3620522,48.0369701 L36.5256759,48.0318647 C37.8784878,47.9471983 38.9527313,46.8201153 38.9527313,45.446291 L38.9527313,45.446291 L38.9527313,25.467306 L38.9476256,25.3037228 C38.8629537,23.9512379 37.7358008,22.8770672 36.3620522,22.8770672 L36.3620522,22.8770672 Z" id="Combined-Shape" fill="#082551"></path>
                <path d="M48.8995522,9.81073134 L35.3788657,9.81073134 C34.7708134,9.81073134 34.2781194,10.3034254 34.2781194,10.9114776 C34.2781194,11.5195299 34.7708134,12.0122239 35.3788657,12.0122239 L48.8995522,12.0122239 C49.5076045,12.0122239 50.0002985,11.5195299 50.0002985,10.9114776 C50.0002985,10.3034254 49.5071642,9.81073134 48.8995522,9.81073134 Z" id="Path" fill="#16B3AB"></path>
                <path d="M35.3788657,16.4134478 L43.6181716,16.4134478 C44.2262239,16.4134478 44.7189179,15.9207537 44.7189179,15.3127015 C44.7189179,14.7046493 44.2262239,14.2119552 43.6181716,14.2119552 L35.3788657,14.2119552 C34.7708134,14.2119552 34.2781194,14.7046493 34.2781194,15.3127015 C34.2781194,15.9207537 34.7708134,16.4134478 35.3788657,16.4134478 Z" id="Path" fill="#16B3AB"></path>
                <path d="M55.026306,12.0122239 C55.6343582,12.0122239 56.1270522,11.5195299 56.1270522,10.9114776 C56.1270522,10.3034254 55.6343582,9.81073134 55.026306,9.81073134 L52.4382313,9.81073134 C51.8301791,9.81073134 51.3374851,10.3034254 51.3374851,10.9114776 C51.3374851,11.5195299 51.8301791,12.0122239 52.4382313,12.0122239 L55.026306,12.0122239 Z" id="Path" fill="#16B3AB"></path>
                <path d="M46.4783507,15.3127015 C46.4783507,15.9207537 46.9710448,16.4134478 47.579097,16.4134478 L55.026306,16.4134478 C55.6343582,16.4134478 56.1270522,15.9207537 56.1270522,15.3127015 C56.1270522,14.7046493 55.6343582,14.2119552 55.026306,14.2119552 L47.579097,14.2119552 C46.9710448,14.2119552 46.4783507,14.7046493 46.4783507,15.3127015 Z" id="Path" fill="#16B3AB"></path>
                <path d="M21.0506716,26.7278806 L20.6341493,26.7278806 C17.9214701,26.7278806 15.714694,28.935097 15.714694,31.6477761 L15.714694,32.2699179 C15.714694,32.8779701 16.2073881,33.3706642 16.8154403,33.3706642 C17.4234925,33.3706642 17.9161866,32.8779701 17.9161866,32.2699179 L17.9161866,31.6477761 C17.9161866,30.149 19.1358134,28.9293731 20.6341493,28.9293731 L21.0506716,28.9293731 C22.5494478,28.9293731 23.7690746,30.149 23.7690746,31.6477761 C23.7690746,32.3989254 23.4538209,33.124097 22.9038881,33.6361642 L21.3073657,35.1243731 C20.312291,36.0516418 19.7416642,37.3637313 19.7416642,38.7233731 L19.7416642,39.3230597 C19.7416642,39.9311119 20.2343582,40.423806 20.8424104,40.423806 C21.4504627,40.423806 21.9431567,39.9311119 21.9431567,39.3230597 L21.9431567,38.7233731 C21.9431567,37.9722239 22.2584104,37.2470522 22.8083433,36.7349851 L24.4048657,35.2467761 C25.3999403,34.3199478 25.9705672,33.0078582 25.9705672,31.6477761 C25.9705672,28.935097 23.7633507,26.7278806 21.0506716,26.7278806 Z" id="Path" fill="#16B3AB"></path>
                <path d="M21.8608209,42.6120896 C21.83,42.5464851 21.7991791,42.484403 21.7595522,42.4227612 C21.7155224,42.3611194 21.6714925,42.3082836 21.6230597,42.2554478 C21.5702239,42.2070149 21.5129851,42.1581418 21.4513433,42.1185149 C21.3941045,42.0788881 21.3280597,42.0436642 21.2620149,42.0176866 C21.1959701,41.9908284 21.1299254,41.9692537 21.0594776,41.9556045 C20.9141791,41.9252239 20.7688806,41.9252239 20.6279851,41.9556045 C20.5575373,41.9688134 20.4870896,41.9908284 20.4210448,42.0176866 C20.355,42.0441045 20.2889552,42.0793284 20.2317164,42.1185149 C20.1700746,42.1581418 20.1128358,42.2065746 20.064403,42.2554478 C19.8574627,42.4623881 19.7429851,42.7437388 19.7429851,43.0347761 C19.7429851,43.3258134 19.8574627,43.6071642 20.064403,43.8145448 C20.1128358,43.8625373 20.1700746,43.9114104 20.2317164,43.9510373 C20.2889552,43.9906642 20.355,44.0214851 20.4210448,44.052306 C20.4870896,44.0787239 20.5575373,44.1002985 20.6279851,44.1139478 C20.6984328,44.1271567 20.7688806,44.1359627 20.8437313,44.1359627 C21.1299254,44.1359627 21.4161194,44.0170821 21.6230597,43.8149851 C21.825597,43.6076045 21.9444776,43.3262537 21.9444776,43.0352164 C21.9444776,42.9647687 21.9356716,42.8899179 21.9224627,42.8194701 C21.9092537,42.7485821 21.8872388,42.6781343 21.8608209,42.6120896 Z" id="Path" fill="#16B3AB"></path>
            </g>
        </g>
    </g>
</svg>