<?xml version="1.0" encoding="UTF-8"?>
<svg width="52px" height="53px" viewBox="0 0 52 53" version="1.1" xmlns="http://www.w3.org/2000/svg" xmlns:xlink="http://www.w3.org/1999/xlink">
    <title>Group 7</title>
    <g id="Styleguide" stroke="none" stroke-width="1" fill="none" fill-rule="evenodd">
        <g id="Icons" transform="translate(-355.000000, -65.000000)" fill-rule="nonzero">
            <g id="Group-7" transform="translate(355.390207, 65.918348)">
                <path d="M21.4066214,21.5288964 L21.1549782,12.1184906 C21.1026321,9.97370785 19.5174765,8.1763138 17.3960585,7.85628452 C16.1813117,7.6956676 14.9553226,8.05656257 14.021334,8.84970368 C13.0873454,9.6428448 12.532581,10.7941619 12.4942594,12.0188818 L11.8546663,34.3207572 C11.6249303,34.1800507 11.4195487,34.0029976 11.2465287,33.7965006 L9.51648195,30.8344508 C8.10371587,28.4253577 5.38640565,27.0956101 2.61726523,27.4582384 C1.6424592,27.5878161 0.792133126,28.1847279 0.339039637,29.0575071 C-0.114053851,29.9302863 -0.112952047,30.9692073 0.341991632,31.8410235 L6.96859492,44.6381268 C7.56720509,45.7695133 8.47667452,46.7062668 9.58987787,47.3380483 L9.74191228,47.4114442 L13.0604565,48.7849965 L13.1600652,48.8216944 C13.7546665,49.0165668 14.2240116,49.478154 14.4287662,50.0694251 L14.7747755,51.0707552 C15.0107498,51.7555147 15.757152,52.1193271 16.4419115,51.8833529 C17.126671,51.6473787 17.4904834,50.9009765 17.2545092,50.216217 L16.8980147,49.225372 C16.4313518,47.8743112 15.3673554,46.8141839 14.0146035,46.3524459 L10.8218809,45.0313193 C10.1781632,44.647697 9.65223594,44.0945666 9.30153675,43.4323367 L2.66969089,30.6299908 C2.61052376,30.5167624 2.61005654,30.3818467 2.66843803,30.2682113 C2.72681952,30.1545759 2.83677076,30.0763888 2.96327458,30.0585511 C4.68600733,29.8303099 6.37778901,30.6565769 7.25693605,32.1555774 L9.03416589,35.1700528 C9.05944063,35.2154026 9.0874528,35.2591716 9.11804694,35.301117 C10.2504412,36.8004908 12.2635865,37.7598804 13.8363562,36.6903969 C14.1902177,36.4565002 14.4090033,36.0658116 14.4235236,35.6418838 L15.0998146,12.113248 C15.1113999,11.6236348 15.3318385,11.1623536 15.7055171,10.8457787 C16.0791957,10.5292038 16.5704309,10.3875656 17.0552917,10.4565972 C17.9030274,10.6011566 18.5256381,11.3319515 18.5336953,12.1918865 L18.8639769,24.5486143 C18.8822819,25.1720504 19.3373884,25.6962262 19.9520833,25.801857 C20.5667781,25.9074878 21.1707614,25.5653088 21.3961363,24.9837473 C21.7174758,24.1372347 22.6068832,23.6502842 23.4931626,23.8356254 C24.3743602,24.0457395 24.9885522,24.8435334 24.9663236,25.7491619 L24.9663236,26.0899287 C24.9655408,26.6375467 25.3053088,27.1279267 25.8182997,27.3195679 C26.3312906,27.5112092 26.9093552,27.3637097 27.2678101,26.9497095 C27.6770956,26.4726125 28.3026406,26.2390229 28.9244609,26.3310867 C29.8577398,26.4972765 30.5275377,27.3233605 30.4972307,28.2708361 L30.4972307,28.6011178 C30.4964478,29.1487357 30.8362158,29.6391157 31.3492067,29.830757 C31.8621976,30.0223982 32.4402622,29.8748987 32.7987171,29.4608986 C33.163775,29.046263 33.6933659,28.8140873 34.2456653,28.8265481 C35.2768714,28.9072808 36.0621277,29.7849203 36.0281377,30.8187231 L36.0281377,40.952603 C36.0281377,44.0404743 34.0516903,46.3943864 33.2023947,47.2436821 C32.667271,47.7882278 32.2575405,48.4430808 32.0018471,49.1624612 L31.6296249,50.2109744 C31.4549765,50.6564877 31.5370118,51.1617726 31.8436367,51.5291489 C32.1502616,51.8965253 32.6327329,52.0675926 33.1022958,51.9754251 C33.5718587,51.8832576 33.9538686,51.5425068 34.0988734,51.0864829 L34.4710956,50.0379697 C34.6017414,49.6836606 34.8073986,49.3617624 35.0739907,49.0943079 C36.4056024,47.7312407 38.644342,44.8583146 38.644342,40.9473605 L38.644342,30.8134806 C38.6646743,28.3687705 36.7601637,26.339601 34.3190612,26.2052652 C33.7849739,26.1902003 33.2524537,26.2700783 32.7462914,26.4411806 C31.8611599,24.2690213 29.4332937,23.1667009 27.2153844,23.9299916 C26.6508763,22.5495576 25.4289346,21.5463829 23.9649936,21.2615255 C23.1043704,21.0994031 22.2151281,21.1923362 21.4066214,21.5288964 Z" id="Path" fill="#082551"></path>
                <path d="M30.6178097,8.35957084 C28.1119729,8.35578229 25.92619,10.0605067 25.3195065,12.491796 C24.712823,14.9230852 25.8414646,17.4548633 28.0553159,18.6287861 C30.2691672,19.8027089 32.9981442,19.3164822 34.6703131,17.4501801 L39.8342405,20.784452 C39.1599496,23.4645078 40.5913779,26.2263796 43.169947,27.2205367 C45.7485161,28.2146939 48.6635228,27.1285729 49.9628872,24.6895118 C51.2622516,22.2504506 50.537453,19.2252912 48.273864,17.6398788 C46.0102751,16.0544665 42.9195693,16.4072555 41.0714861,18.4619953 L35.9075587,15.1277234 C36.1295231,14.268059 36.1295231,13.3661049 35.9075587,12.5064405 L41.0714861,9.17216856 C42.9282613,11.242468 46.0383544,11.6008205 48.3173126,10.0070502 C50.5962708,8.41327997 51.3267839,5.36903194 50.0192459,2.91462803 C48.7117079,0.460224118 45.7776712,-0.631803235 43.1835915,0.37044669 C40.5895119,1.37269661 39.1518852,4.15376206 39.8342405,6.84971187 L34.6703131,10.1787412 C33.6401404,9.02296822 32.1660552,8.36125079 30.6178097,8.35957084 Z M30.6178097,16.642825 C29.0542995,16.642825 27.7868241,15.3753495 27.7868241,13.8118394 C27.7868241,12.2483292 29.0542995,10.9808538 30.6178097,10.9808538 C32.1813198,10.9808538 33.4487953,12.2483292 33.4487953,13.8118394 C33.4459101,15.3741529 32.1801232,16.6399398 30.6178097,16.642825 L30.6178097,16.642825 Z M45.118747,19.2641079 C46.6822571,19.2641079 47.9497325,20.5315833 47.9497325,22.0950935 C47.9497325,23.6586037 46.6822571,24.9260791 45.118747,24.9260791 C43.5552368,24.9260791 42.2877614,23.6586037 42.2877614,22.0950935 C42.2906465,20.53278 43.5564334,19.2669931 45.118747,19.2641079 Z M45.118747,2.69759968 C46.6822571,2.69759968 47.9497325,3.96507509 47.9497325,5.52858526 C47.9497325,7.09209542 46.6822571,8.35957084 45.118747,8.35957084 C43.5552368,8.35957084 42.2877614,7.09209542 42.2877614,5.52858526 C42.2906465,3.96627173 43.5564334,2.70048484 45.118747,2.69759968 Z" id="Shape" fill="#16B3AB"></path>
            </g>
        </g>
    </g>
</svg>