<?xml version="1.0" encoding="UTF-8"?>
<svg width="54px" height="48px" viewBox="0 0 54 48" version="1.1" xmlns="http://www.w3.org/2000/svg" xmlns:xlink="http://www.w3.org/1999/xlink">
    <title>Group 18</title>
    <g id="Styleguide" stroke="none" stroke-width="1" fill="none" fill-rule="evenodd">
        <g id="Icons" transform="translate(-150.000000, -323.000000)" fill-rule="nonzero">
            <g id="Group-18" transform="translate(150.794683, 323.311383)">
                <path d="M37.3852781,2.73737431 C49.2661729,2.73737431 53.5987116,17.7061123 46.3174552,27.6296916 C41.1974236,34.6088013 35.1598007,37.9626822 26.3024965,43.7337363 C17.4435992,37.9626822 11.4049143,34.6088013 6.2870067,27.6296916 C-0.994780672,17.7055813 3.33457194,2.73684329 15.2175908,2.73737431 C15.2436105,2.73737431 15.2701611,2.73790532 15.2956498,2.73790532 C22.8126761,2.77985538 26.3024965,9.1116597 26.3024965,9.1116597 C26.3024965,9.1116597 29.7917858,2.77985538 37.3066881,2.73790532 C37.3332388,2.73790532 37.3587274,2.73737431 37.3852781,2.73737431 M37.3852781,0 L37.2907577,0.000531013445 C32.0533721,0.0297367529 28.4424807,2.54620947 26.3024965,4.71274432 C24.1609192,2.54620947 20.5500278,0.0297367529 15.3121112,0.000531013445 L15.2175908,0 C9.43538541,0 4.60528712,2.98907468 1.96455726,8.20097164 C-1.29161719,14.6283584 -0.441464662,23.0874026 4.07958381,29.2498136 C8.85604974,35.7621625 14.4879783,39.3831431 21.6194889,43.9668512 C22.6406278,44.6242458 23.7026546,45.3065981 24.8076936,46.0271834 L26.3030275,47 L27.7962373,46.0271834 C28.9018073,45.3071291 29.9633032,44.6242458 30.984442,43.9679132 C38.1148906,39.3831431 43.7457571,35.7621625 48.5243471,29.2492826 C53.0448646,23.0879336 53.8944861,14.6299514 50.6383116,8.20203367 C47.9970508,2.98960569 43.1674835,0 37.3852781,0 L37.3852781,0 Z" id="Shape" fill="#082551"></path>
                <path d="M44.5778552,19.7914021 C43.7080552,19.6464354 43.1223473,18.8238956 43.266252,17.9551576 C43.9916163,13.6050955 41.0407746,9.47646594 36.6901815,8.75163258 C35.8203815,8.60666591 35.2341426,7.78412609 35.3785783,6.91485708 C35.5224829,6.04558807 36.3439607,5.45775619 37.2158848,5.60219184 C43.3018299,6.61589651 47.4283354,12.3927918 46.4151617,18.4792679 C46.2707261,19.3485369 45.4497793,19.9368998 44.5778552,19.7914021 Z" id="Path" stroke="#FFFFFF" stroke-width="0.5" fill="#16B3AB"></path>
            </g>
        </g>
    </g>
</svg>