<?xml version="1.0" encoding="UTF-8"?>
<svg width="48px" height="48px" viewBox="0 0 48 48" version="1.1" xmlns="http://www.w3.org/2000/svg" xmlns:xlink="http://www.w3.org/1999/xlink">
    <title>Group 6</title>
    <g id="Styleguide" stroke="none" stroke-width="1" fill="none" fill-rule="evenodd">
        <g id="Icons" transform="translate(-257.000000, -70.000000)" fill-rule="nonzero">
            <g id="Group-6" transform="translate(257.895964, 70.986553)">
                <path d="M11.0377754,9.34856608 C10.5681333,8.87892398 9.80911579,8.87892398 9.33947368,9.34856608 C6.92010526,11.7679345 5.5870807,14.9842713 5.5870807,18.4077567 C5.5870807,21.8312421 6.92010526,25.0444164 9.33947368,27.4653661 C9.57350409,27.6993965 9.88185497,27.817993 10.1886246,27.817993 C10.4953942,27.817993 10.803745,27.7009778 11.0377754,27.4653661 C11.5074175,26.995724 11.5074175,26.2351251 11.0377754,25.765483 C9.07223626,23.8015251 7.98905497,21.1876585 7.98905497,18.409338 C7.98905497,15.6310175 9.07223626,13.0171509 11.0377754,11.0500304 C11.5074175,10.5772257 11.5074175,9.81820819 11.0377754,9.34856608 Z" id="Path" fill="#16B3AB"></path>
                <path d="M45.6790199,38.8553731 L34.3585895,27.5349427 C38.373476,20.5077053 37.4041474,11.3836819 31.4110713,5.39218713 C27.9354035,1.91493801 23.3133029,-1.0658141e-14 18.397083,-1.0658141e-14 C13.4808632,-1.0658141e-14 8.85876257,1.91493801 5.38309474,5.39060585 C-1.79436491,12.5680655 -1.79436491,24.2458667 5.38309474,31.421745 C8.85876257,34.8989942 13.4824444,36.8139322 18.397083,36.8139322 C21.6576959,36.8139322 24.7791556,35.9552936 27.5305942,34.374007 L38.8446994,45.6881123 C39.6163673,46.4613614 40.6315532,46.8471953 41.6451579,46.8471953 C42.6619251,46.8471953 43.6755298,46.4613614 44.4471977,45.6881123 L45.6774386,44.4578713 C47.2239368,42.9129544 47.2239368,40.3987088 45.6790199,38.8553731 Z M7.0798152,29.721862 C0.841639766,23.4821053 0.841639766,13.3286643 7.0798152,7.0889076 C10.1032351,4.06548772 14.1212842,2.40039298 18.3955018,2.40039298 C22.6697193,2.40039298 26.6893497,4.06548772 29.7111883,7.0889076 C35.950945,13.3286643 35.950945,23.480524 29.7127696,29.721862 C26.6893497,32.7437006 22.6697193,34.4103766 18.3955018,34.4103766 C14.1212842,34.4103766 10.1032351,32.7452819 7.0798152,29.721862 Z M43.9791368,42.7595696 L42.7504772,43.9882292 C42.1416819,44.5986058 41.1517965,44.5970246 40.5445825,43.9882292 L29.5688725,33.0141006 C30.2092936,32.5223205 30.8323205,32.0020772 31.4126526,31.421745 C31.9961474,30.8382503 32.5148094,30.2168047 33.0034269,29.5779649 L43.9791368,40.5536749 C44.5879322,41.1624702 44.5879322,42.1507743 43.9791368,42.7595696 Z" id="Shape" fill="#082551"></path>
            </g>
        </g>
    </g>
</svg>