<?xml version="1.0" encoding="UTF-8"?>
<svg width="85px" height="20px" viewBox="0 0 85 20" version="1.1" xmlns="http://www.w3.org/2000/svg" xmlns:xlink="http://www.w3.org/1999/xlink">
    <title>Group 10</title>
    <g id="Styleguide" stroke="none" stroke-width="1" fill="none" fill-rule="evenodd">
        <g id="Icons" transform="translate(-353.000000, -171.000000)" fill="#082551">
            <g id="Group-10" transform="translate(353.221608, 171.968664)">
                <path d="M57.3060402,9.44904262 C57.3060402,6.67192787 57.3032369,3.89465738 57.3075975,1.11754262 C57.3091549,0.194018033 57.4091385,0.0895180328 58.2977779,0.333714754 C58.916368,0.50362459 59.4871467,0.843444262 60.1034008,1.02565738 C60.4572369,1.13031311 60.9256959,1.21067377 61.2295402,1.06552623 C64.2148762,-0.360096721 66.9966631,-0.122129508 69.5948352,1.9608623 C70.4699254,2.66246066 70.4459418,2.62897705 71.2953352,1.91865738 C75.8137533,-1.8601623 81.9495074,0.924739344 83.2117615,5.65932131 C83.3104992,6.02950984 83.3291877,6.42928852 83.3307451,6.81551803 C83.3472533,10.6038377 83.3351057,14.3924689 83.3757261,18.180477 C83.3829172,18.8749115 83.0773598,18.9762967 82.524491,18.9147803 C80.89345,18.7338131 79.8071795,17.5081574 79.7738516,15.6827557 C79.7293107,13.2437475 79.7548516,10.8033377 79.7366303,8.36370656 C79.7333598,7.89898525 79.7138926,7.42538689 79.623409,6.97156721 C79.2172451,4.93545246 77.7187369,3.84793607 75.5505566,3.98249344 C73.8257615,4.08964098 72.3728844,5.58752623 72.2934582,7.4746 C72.2182369,9.26278033 72.2524992,11.055477 72.2476713,12.8463049 C72.2431549,14.5852721 72.2325648,16.3245508 72.2610648,18.0633623 C72.2727451,18.7644934 71.9689008,18.9833049 71.3127779,18.9188295 C69.7066549,18.7607557 68.5568434,17.5537885 68.5359746,15.8944033 C68.5037369,13.3253541 68.5379992,10.7552148 68.4934582,8.18632131 C68.4746139,7.08977213 68.2716877,6.02655082 67.4674582,5.16407541 C66.3962943,4.0153541 65.082491,3.67989508 63.6375566,4.1248377 C62.0096303,4.62646885 61.1102451,5.88327213 61.0786303,7.56181311 C61.0339336,9.92295246 61.0526221,12.2853377 61.0337779,14.6471 C61.0294172,15.1647721 60.9862779,15.6824443 60.9527943,16.1998049 C60.8444008,17.8760098 59.5726467,18.6324279 58.3477697,18.8711738 C57.5218926,19.0322066 57.3082205,18.858559 57.3058844,18.0143049 C57.298409,15.1591656 57.3029254,12.304182 57.3029254,9.44904262 L57.3060402,9.44904262 Z" id="Fill-1"></path>
                <path d="M11.7912443,4.02317213 C11.4872443,4.00884426 11.1832443,3.98252459 10.8792443,3.98221311 C8.38744098,3.97894262 5.89548197,3.99856557 3.40399016,3.97458197 C1.69118689,3.95791803 0.442014754,3.01212295 0.100793443,1.54912295 C-0.151034426,0.470639344 0.0283754098,0.235942623 1.10670328,0.235786885 C5.36332623,0.23547541 9.62010492,0.230959016 13.8767279,0.241237705 C14.4186951,0.242483607 14.9724984,0.263508197 15.5001377,0.373770492 C16.9850967,0.684467213 17.9871131,2.13531967 17.7265639,3.62012295 C17.6703426,3.94140984 17.4115066,4.26487705 17.1679328,4.50969672 C13.9113016,7.78517213 10.6403426,11.0466311 7.37499016,14.3132295 C7.17891639,14.509459 6.99872787,14.721418 6.67775246,15.0713607 C7.13437541,15.127582 7.41906393,15.1917459 7.70406393,15.1929918 C9.98811311,15.2023361 12.272318,15.186918 14.5562115,15.2096557 C15.201277,15.216041 15.8524164,15.2831639 16.4884492,15.3940492 C17.7927525,15.6214262 18.8145475,17.083959 18.6726705,18.3999426 C18.6164492,18.921041 18.2926705,18.9403525 17.9072197,18.9406639 C15.7787525,18.9420656 13.650441,18.9500082 11.5221295,18.948918 C9.05649016,18.9476721 6.59022787,18.9638689 4.12505574,18.9261803 C2.27099836,18.8979918 1.02322787,17.7274672 0.97432623,15.9604672 C0.962645902,15.5421557 1.12819508,14.9990984 1.41241639,14.7108279 C3.87151475,12.2187131 6.38122787,9.77659016 8.86524426,7.3092377 C9.88657213,6.2947623 10.8822033,5.25443443 11.8895148,4.22594262 C11.8568098,4.15835246 11.8239492,4.0907623 11.7912443,4.02317213" id="Fill-3"></path>
                <path d="M27.1872246,3.97039262 C24.1550115,3.77307295 21.5471836,6.37467131 21.5251145,9.70107295 C21.5056016,12.6658516 24.1117164,15.1645074 27.156077,15.1844418 C30.3203557,15.2051549 32.8992164,12.6066713 32.8148066,9.33290902 C32.7412984,6.48929426 30.2456016,3.79300738 27.1872246,3.97039262 M27.147823,0.235179508 C32.318159,0.195622131 36.4456754,4.25959754 36.564659,9.44488443 C36.6831754,14.6124172 32.3667492,18.9244828 27.2537246,18.9374396 C22.1055033,18.9506467 17.7074705,14.6694172 17.7872082,9.58317951 C17.8713066,4.20446639 22.1431918,0.184253279 27.147823,0.235179508" id="Fill-6"></path>
                <path d="M46.8174795,3.97190328 C43.5580451,4.00850164 41.2352172,6.44673115 41.2722828,9.79213279 C41.3046762,12.7196902 43.9118811,15.2118049 46.9173074,15.1881328 C50.0728648,15.163059 52.527291,12.6260918 52.4930287,9.42474754 C52.4597008,6.30547705 49.99375,3.93623934 46.8174795,3.97190328 M56.2324467,9.45573934 C56.2117336,14.8179443 52.0753402,18.9615016 46.7657746,18.9390115 C41.7139549,18.9172721 37.5129303,14.6318377 37.5278414,9.51569836 C37.5426762,4.40096066 41.7502418,0.255534426 46.8651352,0.228611305 C52.2028893,0.200714754 56.203168,4.50281311 56.2324467,9.45573934" id="Fill-8"></path>
            </g>
        </g>
    </g>
</svg>