<?xml version="1.0" encoding="UTF-8"?>
<svg width="49px" height="57px" viewBox="0 0 49 57" version="1.1" xmlns="http://www.w3.org/2000/svg" xmlns:xlink="http://www.w3.org/1999/xlink">
    <title>Group 19</title>
    <g id="Styleguide" stroke="none" stroke-width="1" fill="none" fill-rule="evenodd">
        <g id="Icons" transform="translate(-237.000000, -313.000000)">
            <g id="Group-19" transform="translate(239.623689, 315.956964)">
                <path d="M33.8319389,20.6855393 C34.3946228,20.6855393 34.8507401,21.1416566 34.8507401,21.7043405 C34.8507401,22.2670244 34.3946228,22.7231417 33.8319389,22.7231417 L33.8319389,22.7231417 L11.3729759,22.7231417 C10.810292,22.7231417 10.3541747,22.2670244 10.3541747,21.7043405 C10.3541747,21.1416566 10.810292,20.6855393 11.3729759,20.6855393 L11.3729759,20.6855393 Z M29.16532,15.5429874 C29.7276983,15.5429874 30.1841212,15.9991047 30.1841212,16.5617886 C30.1841212,17.1244725 29.7276983,17.5805898 29.16532,17.5805898 L29.16532,17.5805898 L16.0395948,17.5805898 C15.4772165,17.5805898 15.0207936,17.1244725 15.0207936,16.5617886 C15.0207936,15.9991047 15.4769109,15.5429874 16.0395948,15.5429874 L16.0395948,15.5429874 Z" id="Combined-Shape-Copy-2" fill="#16B3AB"></path>
                <path d="M13.5643444,8.5404053 L22.1320905,7.10542736e-15 L30.2707964,8.5404053 M40.3032465,18.6401985 L44.6402404,23.0891409 L44.6402404,52 L1.27897692e-13,52 L1.27897692e-13,22.0614641 L3.87426668,18.1995607" id="Shape" stroke="#082551" stroke-width="2.7" stroke-linecap="round" stroke-linejoin="round"></path>
                <polygon id="Path-3" stroke="#082551" stroke-width="2.7" stroke-linecap="round" stroke-linejoin="round" points="4.93514088 9.03660155 4.93514088 24.7839939 22.7711818 41.6844158 39.3290402 24.7839939 39.3290402 9.03660155"></polygon>
            </g>
        </g>
    </g>
</svg>