<?xml version="1.0" encoding="UTF-8"?>
<svg width="63px" height="51px" viewBox="0 0 63 51" version="1.1" xmlns="http://www.w3.org/2000/svg" xmlns:xlink="http://www.w3.org/1999/xlink">
    <title>Group 20</title>
    <g id="Styleguide" stroke="none" stroke-width="1" fill="none" fill-rule="evenodd">
        <g id="Icons" transform="translate(-314.000000, -320.000000)">
            <g id="Group-20" transform="translate(314.663053, 320.651691)">
                <line x1="49.8398801" y1="47.9795262" x2="61.0881331" y2="47.9795262" id="Line" stroke="#16B3AB" stroke-width="2.4" stroke-linecap="round"></line>
                <line x1="0.545908375" y1="47.9795262" x2="11.7941615" y2="47.9795262" id="Line-Copy" stroke="#16B3AB" stroke-width="2.4" stroke-linecap="round"></line>
                <path d="M8.03487106,19.6555438 L30.676601,2.60730658 L53.4522105,19.6555438 L53.4522105,24.6345288 L31.5494964,8.24096312 C31.031516,7.85271208 30.320481,7.85271208 29.8023667,8.24096312 L8.03487106,24.63319 L8.03487106,19.6555438 Z M12.5372444,5.42279606 L16.7879239,5.42279606 L16.7879239,10.1541036 L12.5372444,12.8731997 L12.5372444,5.42279606 Z M48.8159575,47.2575155 L39.4109107,47.2575155 L39.4109107,34.9405858 C39.4109107,30.1169013 35.5002855,26.2049373 30.6752622,26.2049373 C25.8502388,26.2049373 21.9396136,30.1155625 21.9396136,34.9405858 L21.9396136,47.2575155 L12.5345668,47.2575155 L12.5345668,23.658546 L30.676601,10.5557426 L48.8159575,23.658546 L48.8159575,47.2575155 Z M24.1834369,47.2575155 L24.1834369,34.9405858 C24.1834369,31.7247961 27.4594725,28.4474218 30.676601,28.4474218 C33.8937294,28.4474218 37.169765,31.7234573 37.169765,34.9405858 L37.169765,47.2575155 L24.1834369,47.2575155 Z M8.25711132,27.3710293 L10.2947599,25.8421234 L10.2947599,46.5881172 C10.2947599,48.196012 11.5987479,49.5 13.2066427,49.5 L48.147898,49.5 C49.7557928,49.5 51.0597808,48.196012 51.0597808,46.5881172 L51.0597808,25.8421234 L53.0974294,27.3710293 C53.5392323,27.701712 54.1283028,27.7552639 54.6223188,27.5089253 C55.114996,27.2625867 55.4269357,26.7578604 55.4269357,26.2062761 L55.4269357,18.9272384 C55.4269357,18.46937 55.2113894,18.0369386 54.8445591,17.7624853 L31.5494964,0.291188284 C31.031516,-0.0970627612 30.320481,-0.0970627612 29.8023667,0.291188284 L19.0290696,8.3721652 L19.0290696,5.82443507 C19.0290696,4.21654022 17.7250816,2.91255223 16.1171868,2.91255223 L13.2053039,2.91255223 C11.5974091,2.91255223 10.2934211,4.21654022 10.2934211,5.82443507 L10.2934211,14.9242363 L6.50864282,17.7638241 C6.14181252,18.0382774 5.92623227,18.4707088 5.92623227,18.9285772 L5.92623227,26.2076149 C5.92358866,26.760538 6.23552829,27.2692807 6.73222187,27.5169581 C7.22623785,27.7606191 7.8166472,27.7043896 8.25711132,27.3710293 Z" id="Fill-1" fill="#082551"></path>
            </g>
        </g>
    </g>
</svg>