<?xml version="1.0" encoding="UTF-8"?>
<svg width="59px" height="47px" viewBox="0 0 59 47" version="1.1" xmlns="http://www.w3.org/2000/svg" xmlns:xlink="http://www.w3.org/1999/xlink">
    <title>Group 16</title>
    <g id="Styleguide" stroke="none" stroke-width="1" fill="none" fill-rule="evenodd">
        <g id="Icons" transform="translate(-533.000000, -247.000000)">
            <g id="Group-16" transform="translate(533.913103, 247.391213)">
                <path d="M54.7825147,8.785875 L38.4675218,8.785875 C37.9607866,3.85831166 33.791982,0 28.7333664,0 C23.6747509,0 19.4992257,3.8576396 18.9931625,8.785875 L2.68421822,8.785875 C1.20433627,8.785875 -1.42108547e-14,9.99021126 -1.42108547e-14,11.4700932 L-1.42108547e-14,43.3157818 C-1.42108547e-14,44.7956637 1.20433627,46 2.68421822,46 L54.7825147,46 C56.2623966,46 57.4667329,44.7956637 57.4667329,43.3157818 L57.4667329,11.4700932 C57.4667329,9.99021126 56.2623966,8.785875 54.7825147,8.785875 Z M28.7333664,2.01618794 C32.6797183,2.01618794 35.948631,4.97124741 36.4446133,8.78520293 L21.0221196,8.78520293 C21.5181019,4.97191947 24.7870146,2.01618794 28.7333664,2.01618794 Z M2.68421822,10.8020629 L19.9495076,10.8020629 L37.5172253,10.8020629 L37.5306665,10.8020629 L54.7825147,10.8020629 C55.150805,10.8020629 55.450545,11.1018029 55.450545,11.4700932 L55.450545,16.767291 L32.1387079,23.7278438 C31.6857377,22.882389 30.8046635,22.2990387 29.7804401,22.2990387 L27.6856208,22.2990387 C26.6607252,22.2990387 25.7776349,22.8837332 25.3253368,23.7312042 L2.01618794,16.8620518 L2.01618794,11.4700932 C2.01618794,11.1018029 2.31592788,10.8020629 2.68421822,10.8020629 Z M30.4491424,24.9832569 L30.4491424,29.8019461 C30.4491424,30.1702364 30.1494024,30.4699763 29.7811121,30.4699763 L27.6862928,30.4699763 C27.3180025,30.4699763 27.0182626,30.1702364 27.0182626,29.8019461 L27.0182626,24.9832569 C27.0182626,24.6149665 27.3180025,24.3152266 27.6862928,24.3152266 L29.7811121,24.3152266 C30.1487304,24.3152266 30.4491424,24.6149665 30.4491424,24.9832569 Z M54.7825147,43.9838121 L2.68421822,43.9838121 C2.31592788,43.9838121 2.01618794,43.6840721 2.01618794,43.3157818 L2.01618794,18.9635917 L25.0014026,25.7366391 L25.0014026,29.8019461 C25.0014026,31.281828 26.2057388,32.4861643 27.6856208,32.4861643 L29.7804401,32.4861643 C31.260322,32.4861643 32.4646583,31.281828 32.4646583,29.8019461 L32.4646583,25.7339509 L55.449874,18.8715192 L55.449874,43.3151097 C55.450545,43.6834001 55.150805,43.9838121 54.7825147,43.9838121 Z" id="Shape" fill="#082551" fill-rule="nonzero"></path>
                <polyline id="Line-2" stroke="#16B3AB" stroke-width="2" stroke-linecap="round" points="4.39931031 32.7409818 4.39931031 41.7409818 19.5221196 41.7409818"></polyline>
            </g>
        </g>
    </g>
</svg>