<?xml version="1.0" encoding="UTF-8"?>
<svg width="58px" height="59px" viewBox="0 0 58 59" version="1.1" xmlns="http://www.w3.org/2000/svg" xmlns:xlink="http://www.w3.org/1999/xlink">
    <title>Group 9</title>
    <g id="Styleguide" stroke="none" stroke-width="1" fill="none" fill-rule="evenodd">
        <g id="Icons" transform="translate(-147.000000, -141.000000)" fill-rule="nonzero">
            <g id="Group-9" transform="translate(147.261487, 141.689766)">
                <path d="M35.9192538,3.55271368e-14 C42.2396715,3.55271368e-14 47.3633824,5.12371087 47.3633824,11.4441285 C47.3633824,15.02013 45.723214,18.2130497 43.1541187,20.3116459 L45.9348626,20.3104793 C51.6249739,20.3104793 56.2540442,24.8533358 56.3930128,30.5099881 L56.396226,30.7718427 L56.396226,53.1277519 C56.396226,54.1566931 55.5968594,54.9989322 54.5852631,55.0673325 L54.4521604,55.0718175 L35.963569,55.0718175 L35.963569,52.4940397 L53.8180665,52.493903 L53.8184483,30.7718427 C53.8184483,26.4942443 50.4116061,23.0123565 46.1632439,22.8915016 L45.9348626,22.8882571 L27.5415869,22.8882571 L27.5415869,20.3104793 L28.6840343,20.3114714 C28.5346932,20.1894328 28.3881686,20.0634312 28.2446109,19.9335476 L28.0154593,19.7205103 L29.7960151,17.8564932 C31.4353406,19.422418 33.6058376,20.3104793 35.9192538,20.3104793 C40.8160041,20.3104793 44.7856046,16.3408788 44.7856046,11.4441285 C44.7856046,6.54737823 40.8160041,2.57777778 35.9192538,2.57777778 C31.5418579,2.57777778 27.8473753,5.76898605 27.1651397,10.0282056 L27.1303515,10.2659142 L24.5749376,9.92709542 C25.3247347,4.27203047 30.1639475,3.55271368e-14 35.9192538,3.55271368e-14 Z" id="Combined-Shape" fill="#16B3AB"></path>
                <path d="M18.3691124,5.66901487 C24.4300015,5.66901487 29.343323,10.5823363 29.343323,16.6432255 C29.343323,20.4784667 27.3759447,23.8542022 24.3953476,25.8162723 L24.7085951,25.8164396 C31.3523761,25.8164396 36.7382248,31.2022882 36.7382248,37.8460692 L36.7382248,57.1407407 C36.7382248,57.6152965 36.3535213,58 35.8789655,58 L0.859259259,58 C0.384703474,58 4.61852778e-14,57.6152965 4.61852778e-14,57.1407407 L4.61852778e-14,37.8460692 C4.61852778e-14,31.2022882 5.38584864,25.8164396 12.0296296,25.8164396 L12.3428772,25.8162723 C9.36228009,23.8542022 7.3949018,20.4784667 7.3949018,16.6432255 C7.3949018,10.5823363 12.3082232,5.66901487 18.3691124,5.66901487 Z M24.7085951,28.3942174 L12.0296296,28.3942174 C6.89237494,28.3942174 2.7123677,32.4926809 2.5809634,37.5982524 L2.57777778,37.8460692 L2.5769998,55.4213993 L34.1599331,55.4213993 L34.160447,37.8460692 C34.160447,32.7088145 30.0619835,28.5288073 24.9564119,28.397403 L24.7085951,28.3942174 Z M18.3691124,8.24679265 C13.7318906,8.24679265 9.97267958,12.0060037 9.97267958,16.6432255 C9.97267958,21.2804473 13.7318906,25.0396583 18.3691124,25.0396583 C23.0063342,25.0396583 26.7655452,21.2804473 26.7655452,16.6432255 C26.7655452,12.0060037 23.0063342,8.24679265 18.3691124,8.24679265 Z" id="Combined-Shape" fill="#082551"></path>
            </g>
        </g>
    </g>
</svg>