<svg id="Layer_1" data-name="Layer 1" xmlns="http://www.w3.org/2000/svg" viewBox="0 0 1327.65 751.68"><defs><style>.cls-1{fill:#fff;}</style></defs><rect class="cls-1" x="749.78" y="201.86" width="341.3" height="8.86" rx="0.27"/><path class="cls-1" d="M751.8,286l-6.92-3.24a2,2,0,0,1-1-2.79l3.24-6.92a2,2,0,0,1,2.8-.89l5.74,2.65h37.84a10.25,10.25,0,0,1,10.31,10.31v58.3a8.24,8.24,0,0,1-8.25,8.25H754.45a2.77,2.77,0,0,1-2.65-2.8Zm40.35,1.33c0-.59-.3-.89-1-.89h-28V340h28c.73,0,1-.29,1-1Z"/><path class="cls-1" d="M847.5,321.47c-.88.89-2.06.89-3.24-.14l-4.71-4.42a2.09,2.09,0,0,1,0-2.94c9.13-9.57,9-13,9-26.51a.93.93,0,0,0-1-1H825.42a2.26,2.26,0,0,1-2.21-2.21v-7.36a2.14,2.14,0,0,1,2.21-2.06h26.94c3.68,0,7.8,2.65,7.8,7.36v9.13C860.16,301.89,858.84,310,847.5,321.47Z"/><path class="cls-1" d="M882.54,277.6a2.77,2.77,0,0,1,2.65-2.8H924.5a14.32,14.32,0,0,1,14.43,14.28v60.37a2.26,2.26,0,0,1-2.21,2.21h-7.36a2.14,2.14,0,0,1-2.06-2.21V288.64a2.21,2.21,0,0,0-2.35-2.21H894.18v63a2.27,2.27,0,0,1-2.21,2.21h-7.22a2.26,2.26,0,0,1-2.21-2.21Z"/><path class="cls-1" d="M1000.33,319.12,1017.85,345a2,2,0,0,1-.45,2.94l-6,4.28a2,2,0,0,1-3-.45l-29-43c-5.74,4.13-7.07,10.31-7.07,20.17v20.47a2.14,2.14,0,0,1-2.06,2.21h-7.36a2.26,2.26,0,0,1-2.21-2.21V329c0-12.51,3.09-22.38,12.66-29.15l-13.1-19.29a2,2,0,0,1,.44-2.94l6-4.27a2,2,0,0,1,2.94.44l23.41,34.6,13.25-31.21c.89-2.21,1.77-2.36,3.54-2.36h6.18a2.39,2.39,0,0,1,2.35,3.54Z"/><path class="cls-1" d="M1090.13,351.66h-7.21a2.26,2.26,0,0,1-2.21-2.21V296.3a9.9,9.9,0,0,0-10-9.87h-31.8a2.26,2.26,0,0,1-2.21-2.21v-7.36a2.14,2.14,0,0,1,2.21-2.06h31.8a21.55,21.55,0,0,1,21.64,21.5v53.15A2.26,2.26,0,0,1,1090.13,351.66Zm-41.22-27v24.74a2.14,2.14,0,0,1-2.06,2.21h-7.36a2.26,2.26,0,0,1-2.21-2.21v-25c0-3.53,1.47-17.67,1.47-17.67a2,2,0,0,1,2.36-1.91l7.21.73a2,2,0,0,1,1.92,2.36S1048.91,321.47,1048.91,324.71Z"/><path class="cls-1" d="M770.5,479.26h-7.21a2.17,2.17,0,0,1-2.21-2.21V415.8c0-.3,0-.44-.44-.59l-16.93-4.27a2.11,2.11,0,0,1-1.48-2.65l1.77-6.77a2.17,2.17,0,0,1,2.8-1.62l21.05,5.45c3.54.88,4.86,2.79,4.86,6.33v65.37A2.26,2.26,0,0,1,770.5,479.26Z"/><path class="cls-1" d="M825,479.26H794.35a2.26,2.26,0,0,1-2.21-2.21v-7.22a2.26,2.26,0,0,1,2.21-2.2h26.06c.88,0,1.18-.3,1.18-1V414.92c0-.59-.44-.89-1.18-.89h-13.1a2.26,2.26,0,0,1-2.21-2.21v-7.36a2.14,2.14,0,0,1,2.21-2.06h15.6a10.34,10.34,0,0,1,10.31,10.31V471A8.23,8.23,0,0,1,825,479.26Z"/><path class="cls-1" d="M882.84,480a2.07,2.07,0,0,1-2.8,1.18l-7.66-2.65a2.22,2.22,0,0,1-1.17-3.09l24.58-60.07c.3-.74,0-1.33-.73-1.33H855.6a2.26,2.26,0,0,1-2.21-2.21V376.34a2.27,2.27,0,0,1,2.21-2.21h7.21a2.27,2.27,0,0,1,2.21,2.21V402.4h36.51a7.76,7.76,0,0,1,3.1.59,8,8,0,0,1,4,10.16Z"/><path class="cls-1" d="M937.16,402.4c1.62,0,2.51.59,2.51,2.21l.88,31.21c9.13-1.62,12.22-5.88,12.22-19.87V404.9c0-1.62.73-2.5,2.35-2.5H961a2.36,2.36,0,0,1,2.65,2.5l-.29,11.78c-.44,19.44-5.45,24.3-22.67,28.13l.73,24c27.83-3.24,35-19.43,35-54V404.9c0-1.62.74-2.5,2.36-2.5h6.77a2.36,2.36,0,0,1,2.65,2.5l-.29,9.87c-1,36.81-7.66,62.57-51.68,65.52-2.36.14-5.16-.74-5.3-4.42l-2.36-71c0-1.62.74-2.5,2.36-2.5Z"/><path class="cls-1" d="M577.3,330.8c0,12.51-11.28,22.45-25.52,22.45-13.86,0-25.15-9.94-25.15-22.45V297.18c0-12.51,11.29-22.45,25.15-22.45,14.24,0,25.52,9.94,25.52,22.45Zm-11.16-33.74c0-6.62-6.75-12-14.11-12s-14.23,5.4-14.23,12v33.86c0,6.63,6.75,12,14.23,12s14.11-5.4,14.11-12Z"/><path class="cls-1" d="M597.55,278.54a2.51,2.51,0,0,1,2.57-2.58h6a2.45,2.45,0,0,1,2.58,2.58v52.14c0,6.62,6.75,12.14,14.23,12.14s14.23-5.52,14.23-12.14V278.54a2.52,2.52,0,0,1,2.58-2.58h6a2.45,2.45,0,0,1,2.58,2.58v51.77c0,12.64-11.41,22.94-25.4,22.94s-25.39-10.3-25.39-22.94Z"/><path class="cls-1" d="M668.46,279.39A3.51,3.51,0,0,1,671.9,276h25.39a18.91,18.91,0,0,1,18.9,18.89v5.28a18.73,18.73,0,0,1-14.85,18.52l15.58,29.69a2.21,2.21,0,0,1-1.84,3.32h-5.76a4,4,0,0,1-3.81-2.46L690.3,319.15H679.63v29.93a2.42,2.42,0,0,1-2.46,2.58H671a2.6,2.6,0,0,1-2.58-2.58Zm37.42,15.46a8.86,8.86,0,0,0-8.59-8.58H679.63v22.57h17.66a8.89,8.89,0,0,0,8.59-8.71Z"/><path class="cls-1" d="M232.05,403.56a18.92,18.92,0,0,1,19,18.89V425a16.91,16.91,0,0,1-5.15,12.51A17.89,17.89,0,0,1,254,452.63v7.61a18.93,18.93,0,0,1-18.89,19H209.73a3.52,3.52,0,0,1-3.44-3.44V407a3.52,3.52,0,0,1,3.44-3.43Zm-15,10.31V434h15.33c4.42,0,8.35-4.17,8.35-8.59v-2.95a8.88,8.88,0,0,0-8.72-8.58Zm0,30.05v25h18a8.89,8.89,0,0,0,8.59-8.71v-7.73a8.87,8.87,0,0,0-8.59-8.59Z"/><path class="cls-1" d="M270.58,407a3.51,3.51,0,0,1,3.43-3.43h25.4a18.89,18.89,0,0,1,18.89,18.89v5.28a18.72,18.72,0,0,1-14.84,18.52L319,475.94a2.21,2.21,0,0,1-1.84,3.32h-5.77a4,4,0,0,1-3.8-2.46l-15.21-30.05H281.74v29.93a2.42,2.42,0,0,1-2.45,2.58h-6.13a2.6,2.6,0,0,1-2.58-2.58ZM308,422.45a8.86,8.86,0,0,0-8.59-8.58H281.74v22.57h17.67a8.89,8.89,0,0,0,8.59-8.71Z"/><path class="cls-1" d="M386.4,458.4c0,12.51-11.29,22.45-25.52,22.45-13.87,0-25.15-9.94-25.15-22.45V424.79c0-12.52,11.28-22.46,25.15-22.46,14.23,0,25.52,9.94,25.52,22.46Zm-11.17-33.74c0-6.62-6.75-12-14.11-12s-14.23,5.4-14.23,12v33.86c0,6.63,6.75,12,14.23,12s14.11-5.4,14.11-12Z"/><path class="cls-1" d="M434.61,476.68a2.44,2.44,0,0,1-2.57,2.58h-6a2.52,2.52,0,0,1-2.57-2.58V414H407.87a2.52,2.52,0,0,1-2.58-2.58v-5.27a2.52,2.52,0,0,1,2.58-2.58h42.81a2.51,2.51,0,0,1,2.58,2.58v5.27a2.52,2.52,0,0,1-2.58,2.58H434.61Z"/><path class="cls-1" d="M520,476.68a2.42,2.42,0,0,1-2.45,2.58h-6.13a2.6,2.6,0,0,1-2.58-2.58V441.35h-25.4v35.33a2.42,2.42,0,0,1-2.45,2.58h-6.13a2.6,2.6,0,0,1-2.58-2.58V406.14a2.59,2.59,0,0,1,2.58-2.58H481a2.41,2.41,0,0,1,2.45,2.58V431h25.4v-24.9a2.59,2.59,0,0,1,2.58-2.58h6.13a2.41,2.41,0,0,1,2.45,2.58Z"/><path class="cls-1" d="M540.25,407a3.51,3.51,0,0,1,3.43-3.43H585.4a2.51,2.51,0,0,1,2.57,2.58v5.27A2.52,2.52,0,0,1,585.4,414h-34V431h18.28a2.7,2.7,0,0,1,2.7,2.58v5a2.81,2.81,0,0,1-2.7,2.7H551.41v27.48h34A2.51,2.51,0,0,1,588,471.4v5.28a2.52,2.52,0,0,1-2.57,2.58H543.68a3.51,3.51,0,0,1-3.43-3.44Z"/><path class="cls-1" d="M604.54,407a3.51,3.51,0,0,1,3.43-3.43h25.4a18.89,18.89,0,0,1,18.89,18.89v5.28a18.72,18.72,0,0,1-14.84,18.52L653,475.94a2.22,2.22,0,0,1-1.84,3.32h-5.77a4,4,0,0,1-3.8-2.46l-15.21-30.05H615.7v29.93a2.42,2.42,0,0,1-2.45,2.58h-6.14a2.59,2.59,0,0,1-2.57-2.58ZM642,422.45a8.86,8.86,0,0,0-8.59-8.58H615.7v22.57h17.67a8.89,8.89,0,0,0,8.59-8.71Z"/><path class="cls-1" d="M689.44,445.88c-18-6.25-22.82-14-22.08-24.53.73-10.8,10.55-19,22.69-19a54.27,54.27,0,0,1,19.88,4.3c1.84.73,2.82,2,2.08,4l-1.22,3.44c-.74,2-2.09,2.33-3.69,1.72-6.37-2.58-11.16-3.68-15.7-3.68-7.24,0-12.76,3.92-13.13,10.06C677.91,428,682,431.65,693,435.7c19.5,7.24,24.29,15.22,23.31,25.77-1,11-10.92,19-23.56,19a58,58,0,0,1-20.61-4.29c-2-.74-2.94-2-2.21-4.05l1.35-3.43c.74-2,2.09-2.34,3.68-1.72,6.75,2.57,11.66,3.68,16.32,3.68,7.48,0,13.25-4.05,14-10.06C706.12,453.62,701.09,449.93,689.44,445.88Z"/><rect class="cls-1" x="206.02" y="540.96" width="506.36" height="8.86" rx="0.27"/></svg>