<?xml version="1.0" encoding="UTF-8"?>
<svg width="44px" height="58px" viewBox="0 0 44 58" version="1.1" xmlns="http://www.w3.org/2000/svg" xmlns:xlink="http://www.w3.org/1999/xlink">
    <title>Group 12</title>
    <g id="Styleguide" stroke="none" stroke-width="1" fill="none" fill-rule="evenodd">
        <g id="Icons" transform="translate(-152.000000, -227.000000)">
            <g id="Group-12" transform="translate(153.344613, 228.014535)">
                <path d="M29.3361821,19.2392846 C29.3361821,14.5531194 25.5228828,10.7403556 20.8351111,10.7403556 C16.1473394,10.7403556 12.3340401,14.5531194 12.3340401,19.2392846 C12.3340401,23.9265207 16.1473394,27.7403556 20.8351111,27.7403556 C25.5228828,27.7403556 29.3361821,23.9270562 29.3361821,19.2392846 Z M13.4050412,19.2392846 C13.4050412,15.1437765 16.738532,11.8113566 20.8351111,11.8113566 C24.9316902,11.8113566 28.265181,15.1437765 28.265181,19.2392846 C28.265181,23.3363992 24.9316902,26.6693545 20.8351111,26.6693545 C16.738532,26.6693545 13.4050412,23.3363992 13.4050412,19.2392846 Z M20.5034667,52.3338667 C20.6210667,52.4794667 20.7996444,52.5647111 20.9863111,52.5647111 C20.9869333,52.5647111 20.9869333,52.5647111 20.9869333,52.5647111 C21.1748444,52.5647111 21.3521778,52.4800889 21.4697778,52.3344889 L22.4298667,51.1510222 C23.1528889,50.2593778 40.124,29.2071111 40.124,19.1308444 C40.124,8.58168889 31.5392,-3.55271368e-14 20.9869333,-3.55271368e-14 C10.4384,-3.55271368e-14 1.85608889,8.58168889 1.85608889,19.1308444 C1.85608889,28.9868444 17.7352,48.9110222 19.5458667,51.1504 L20.5034667,52.3338667 Z M20.9869333,1.24444444 C30.8535111,1.24444444 38.8795556,9.26862222 38.8795556,19.1308444 C38.8795556,28.7709333 22.1747556,49.4903111 21.4641778,50.3670222 L20.9875556,50.9537778 L20.5128,50.3676444 C19.8016,49.4884444 3.10053333,28.7211556 3.10053333,19.1308444 C3.10053333,9.26862222 11.1247111,1.24444444 20.9869333,1.24444444 Z" id="Shape" stroke="#082551" stroke-width="1.2" fill="#082551" fill-rule="nonzero"></path>
                <path d="M41.6702222,51.8460444 C41.6702222,55.1313778 28.0416889,56 20.8351111,56 C13.6285333,56 -1.27897692e-13,55.1313778 -1.27897692e-13,51.8460444 C-1.27897692e-13,50.1063111 3.64,48.8637333 10.8185778,48.1525333 C11.1570667,48.1183111 11.4656889,48.3684444 11.4992889,48.7100444 C11.5335111,49.0522667 11.2833778,49.3571556 10.9417778,49.3907556 C2.97048889,50.1803556 1.24506667,51.5492444 1.24506667,51.8460444 C1.24444444,52.8335111 8.1592,54.7555556 20.8351111,54.7555556 C33.5110222,54.7555556 40.4257778,52.8335111 40.4257778,51.8460444 C40.4257778,51.5473778 38.6816889,50.1679111 30.6264,49.3808 C30.2848,49.3472 30.0346667,49.0429333 30.0682667,48.7013333 C30.1018667,48.3597333 30.3999111,48.1058667 30.7483556,48.1425778 C37.9953778,48.8506667 41.6702222,50.0963556 41.6702222,51.8460444 Z" id="Path" stroke="#16B3AB" fill="#16B3AB"></path>
            </g>
        </g>
    </g>
</svg>