<?xml version="1.0" encoding="UTF-8"?>
<svg width="54px" height="53px" viewBox="0 0 54 53" version="1.1" xmlns="http://www.w3.org/2000/svg" xmlns:xlink="http://www.w3.org/1999/xlink">
    <title>noun_clock_3690327</title>
    <g id="Styleguide" stroke="none" stroke-width="1" fill="none" fill-rule="evenodd">
        <g id="Icons" transform="translate(-63.000000, -66.000000)" fill-rule="nonzero">
            <g id="noun_clock_3690327" transform="translate(63.214627, 66.129449)">
                <g id="Group" transform="translate(0.206477, 0.000000)">
                    <path d="M25.8300453,0.111059301 C11.6258415,0.111059301 0.111059301,11.6258415 0.111059301,25.8300453 C0.111059301,40.034249 11.6258415,51.5490312 25.8300453,51.5490312 C40.034249,51.5490312 51.5490312,40.034249 51.5490312,25.8300453 C51.533026,11.6324764 40.0276141,0.127064557 25.8300453,0.111059301 Z M25.8300453,49.2622039 C12.8888214,49.2622039 2.39788658,38.7712692 2.39788658,25.8300453 C2.39788658,12.8888214 12.8888214,2.39788658 25.8300453,2.39788658 C38.7712692,2.39788658 49.2622039,12.8888214 49.2622039,25.8300453 C49.2474467,38.7651516 38.7651516,49.2474467 25.8300453,49.2622039 L25.8300453,49.2622039 Z" id="Shape" fill="#082551"></path>
                    <path d="M26.9734589,25.3566034 L26.9734589,14.3713483 C26.9734589,13.7398584 26.4615352,13.2279347 25.8300453,13.2279347 C25.1985553,13.2279347 24.6866316,13.7398584 24.6866316,14.3713483 L24.6866316,25.8300453 C24.6866316,26.1332696 24.8072181,26.4240484 25.0216518,26.6384387 L32.2584311,33.875218 C32.7049134,34.3217003 33.4288043,34.3217003 33.8752866,33.875218 C34.3217689,33.4287357 34.3217689,32.7048448 33.8752866,32.2583625 L26.9734589,25.3566034 Z" id="Path" fill="#16B3AB"></path>
                    <path d="M25.0182216,7.958067 C25.1290977,8.05918238 25.2565863,8.14041246 25.3950793,8.19818386 C25.5308987,8.26233698 25.6798898,8.29368539 25.8300453,8.28970269 C26.1338414,8.29080685 26.4257185,8.17158944 26.6418689,7.95811273 C26.7448943,7.8529612 26.8264518,7.72874907 26.8819858,7.59241475 C26.9451256,7.45231103 26.9763685,7.29993546 26.9734589,7.14628905 C26.9713715,7.07341942 26.9637265,7.00081532 26.9505906,6.92910906 C26.9396157,6.85347357 26.9164222,6.78012424 26.8819172,6.71192908 C26.8591061,6.64162506 26.824149,6.57586332 26.7786327,6.5176288 C26.7425058,6.45356234 26.6963307,6.39570931 26.6418689,6.34627683 C26.4270069,6.13016236 26.1348387,6.00864467 25.830091,6.00864467 C25.5253433,6.00864467 25.2331751,6.13016236 25.018313,6.34627683 C24.9636598,6.39569711 24.9172883,6.45356488 24.8809662,6.51767453 C24.8354498,6.57590906 24.8004927,6.64167079 24.7776816,6.71197481 C24.7431147,6.78009981 24.7200974,6.85349086 24.7095685,6.9291548 C24.6961623,7.00082187 24.6885151,7.07344719 24.6867002,7.14633479 C24.6893807,7.29935534 24.7202304,7.45057261 24.7777045,7.59241475 C24.8331891,7.72885701 24.9149049,7.85308749 25.0182216,7.958067 Z" id="Path" fill="#16B3AB"></path>
                    <path d="M26.6418689,43.4379407 C26.3069142,43.1250955 25.8223626,43.0317697 25.3951708,43.1978238 C25.108277,43.3023628 24.8822663,43.5283734 24.7777274,43.8152672 C24.7192461,43.9527386 24.6882967,44.1003458 24.6866316,44.2497301 C24.6866316,44.88122 25.1985553,45.3931437 25.8300453,45.3931437 C26.4615352,45.3931437 26.9734589,44.88122 26.9734589,44.2497301 C26.9773608,44.0997682 26.9459976,43.9509852 26.8818943,43.8153587 C26.8236034,43.6769898 26.7424641,43.5494056 26.6418689,43.4379407 Z" id="Path" fill="#16B3AB"></path>
                    <path d="M7.91228472,24.755305 C7.85178118,24.7103451 7.78664886,24.6719756 7.71799587,24.6408493 C7.64707878,24.6164867 7.57449724,24.5972694 7.50081588,24.5833471 C7.16472155,24.5170351 6.81656584,24.6041078 6.55125723,24.8208289 C6.28594862,25.03755 6.13114673,25.3613252 6.1290511,25.7038924 C6.13083674,25.7767819 6.13848417,25.8494096 6.15191938,25.9210724 C6.17478765,26.0014658 6.19714139,26.0701393 6.22003253,26.1388127 C6.25464366,26.2069258 6.28870595,26.2755993 6.32331708,26.3331015 C6.36366031,26.3975683 6.41375791,26.455388 6.47182365,26.5044992 C6.6813153,26.7223956 6.97017695,26.8460797 7.27244188,26.8473061 C7.34902935,26.8454955 7.42536746,26.8378506 7.50079302,26.8244378 C7.57607965,26.8122722 7.64922306,26.7893326 7.717973,26.7563247 C7.78626894,26.728999 7.85141039,26.6943696 7.91226185,26.6530401 C7.97470412,26.6097606 8.03236335,26.5599589 8.08426556,26.5044764 C8.14233442,26.4553683 8.19243247,26.3975481 8.23277213,26.3330787 C8.26683442,26.2755764 8.30144555,26.206903 8.33550784,26.1387898 C8.35837611,26.0701164 8.38124439,26.001443 8.40418126,25.9210496 C8.41761647,25.8493867 8.42526391,25.7767591 8.42704954,25.7038696 C8.42595443,25.3983047 8.30248782,25.1059153 8.08424269,24.8920459 C8.03519693,24.8369334 7.97702782,24.7906774 7.91228472,24.755305 L7.91228472,24.755305 Z" id="Path" fill="#16B3AB"></path>
                    <path d="M43.3240453,26.1387669 C43.3581076,26.2068801 43.3927187,26.2755535 43.426781,26.3330558 C43.467148,26.3976715 43.5174552,26.4555149 43.5758478,26.5044535 C43.6773349,26.6147294 43.8023104,26.7007844 43.9415344,26.756256 C44.0833808,26.8137293 44.2346016,26.8445789 44.3876258,26.8472603 C44.5369694,26.845612 44.6845403,26.8146939 44.8219858,26.756256 C44.9612131,26.7007846 45.0861924,26.6147297 45.1876837,26.5044535 C45.2460763,26.4555149 45.2963836,26.3976715 45.3367506,26.3330558 C45.3708014,26.2755535 45.4048637,26.2068801 45.4394749,26.1387669 C45.4623431,26.0700935 45.4852114,26.0014201 45.5081483,25.9210267 C45.5213132,25.8493246 45.5289584,25.7767183 45.5310165,25.7038467 C45.5297168,25.3982144 45.406057,25.1058357 45.1876609,24.892023 C45.0831399,24.7854337 44.9589505,24.700113 44.8219629,24.6407807 C44.5396449,24.5263314 44.2238524,24.5263314 43.9415344,24.6407807 C43.8045503,24.7001132 43.6803647,24.785434 43.5758478,24.892023 C43.3604917,25.1069279 43.2409397,25.3996242 43.2442579,25.7038467 C43.2404844,25.7769903 43.2482009,25.8502732 43.2671261,25.9210267 C43.2791369,25.9952506 43.2981962,26.0681605 43.3240453,26.1387669 L43.3240453,26.1387669 Z" id="Path" fill="#16B3AB"></path>
                </g>
            </g>
        </g>
    </g>
</svg>